<svg xmlns="http://www.w3.org/2000/svg" viewBox="0 0 512 512">
  <rect width="512" height="512" rx="96" fill="#16a34a"/>
  <g transform="translate(256,256) scale(8)" stroke="white" stroke-width="2.5" stroke-linecap="round" stroke-linejoin="round" fill="none">
    <path d="M-5 8h10"/>
    <path d="M-2 8c5.5-2.5.8-6.4 3-10"/>
    <path d="M-2.5-2.6c1.1.8 1.8 2.2 2.3 3.7-2 .4-3.5.4-4.8-.3-1.2-.6-2.3-1.9-3-4.2 2.8-.5 4.4 0 5.5.8z"/>
    <path d="M2.1-6a7 7 0 0 0-1.1 4c1.9-.1 3.3-.6 4.3-1.4 1-1 1.6-2.3 1.7-4.6-2.7.1-4 1-4.9 2z"/>
  </g>
  <text x="256" y="440" text-anchor="middle" font-family="Arial,sans-serif" font-weight="bold" font-size="80" fill="white">VitrOS</text>
</svg>
